<mxfile host="app.diagrams.net" modified="2024-01-12T10:52:38.733Z" agent="Mozilla/5.0 (Windows NT 10.0; Win64; x64) AppleWebKit/537.36 (KHTML, like Gecko) Chrome/120.0.0.0 Safari/537.36 Edg/120.0.0.0" etag="porn94UlyMeK3jycWlYW" version="22.1.18" type="github">
  <diagram name="Page-1" id="2YBvvXClWsGukQMizWep">
    <mxGraphModel dx="2464" dy="832" grid="1" gridSize="10" guides="1" tooltips="1" connect="1" arrows="1" fold="1" page="1" pageScale="1" pageWidth="850" pageHeight="1100" math="0" shadow="0">
      <root>
        <mxCell id="0" />
        <mxCell id="1" parent="0" />
        <mxCell id="aM9ryv3xv72pqoxQDRHE-1" value="&lt;font style=&quot;font-size: 12px;&quot;&gt;:&lt;/font&gt;&lt;font style=&quot;font-size: 11px;&quot;&gt;&lt;font style=&quot;&quot;&gt;Notification&lt;/font&gt;&lt;font style=&quot;&quot;&gt;Record&lt;/font&gt;&lt;/font&gt;" style="shape=umlLifeline;perimeter=lifelinePerimeter;whiteSpace=wrap;html=1;container=0;dropTarget=0;collapsible=0;recursiveResize=0;outlineConnect=0;portConstraint=eastwest;newEdgeStyle={&quot;edgeStyle&quot;:&quot;elbowEdgeStyle&quot;,&quot;elbow&quot;:&quot;vertical&quot;,&quot;curved&quot;:0,&quot;rounded&quot;:0};" parent="1" vertex="1">
          <mxGeometry x="270" y="1060" width="100" height="680" as="geometry" />
        </mxCell>
        <mxCell id="aM9ryv3xv72pqoxQDRHE-5" value="&lt;font style=&quot;font-size: 12px;&quot;&gt;:Target&lt;/font&gt;" style="shape=umlLifeline;perimeter=lifelinePerimeter;whiteSpace=wrap;html=1;container=0;dropTarget=0;collapsible=0;recursiveResize=0;outlineConnect=0;portConstraint=eastwest;newEdgeStyle={&quot;edgeStyle&quot;:&quot;elbowEdgeStyle&quot;,&quot;elbow&quot;:&quot;vertical&quot;,&quot;curved&quot;:0,&quot;rounded&quot;:0};" parent="1" vertex="1">
          <mxGeometry x="450" y="1060" width="100" height="680" as="geometry" />
        </mxCell>
        <mxCell id="ORx9DDc8K5r6ulXrz52M-3" value="" style="shape=umlLifeline;perimeter=lifelinePerimeter;whiteSpace=wrap;html=1;container=1;dropTarget=0;collapsible=0;recursiveResize=0;outlineConnect=0;portConstraint=eastwest;newEdgeStyle={&quot;curved&quot;:0,&quot;rounded&quot;:0};participant=umlActor;" parent="1" vertex="1">
          <mxGeometry x="30" y="1060" width="20" height="680" as="geometry" />
        </mxCell>
        <mxCell id="0F8jDRwpQhIUNMn6P4Vn-1" value=":Interface" style="shape=umlLifeline;perimeter=lifelinePerimeter;whiteSpace=wrap;html=1;container=1;dropTarget=0;collapsible=0;recursiveResize=0;outlineConnect=0;portConstraint=eastwest;newEdgeStyle={&quot;curved&quot;:0,&quot;rounded&quot;:0};" parent="1" vertex="1">
          <mxGeometry x="110" y="1060" width="100" height="680" as="geometry" />
        </mxCell>
        <mxCell id="0F8jDRwpQhIUNMn6P4Vn-5" value=":DataAccess" style="shape=umlLifeline;perimeter=lifelinePerimeter;whiteSpace=wrap;html=1;container=1;dropTarget=0;collapsible=0;recursiveResize=0;outlineConnect=0;portConstraint=eastwest;newEdgeStyle={&quot;curved&quot;:0,&quot;rounded&quot;:0};" parent="1" vertex="1">
          <mxGeometry x="648" y="1060" width="100" height="680" as="geometry" />
        </mxCell>
        <mxCell id="ZWPyIBg1fmBrResqL_RG-255" value="" style="html=1;points=[[0,0,0,0,5],[0,1,0,0,-5],[1,0,0,0,5],[1,1,0,0,-5]];perimeter=orthogonalPerimeter;outlineConnect=0;targetShapes=umlLifeline;portConstraint=eastwest;newEdgeStyle={&quot;curved&quot;:0,&quot;rounded&quot;:0};" parent="1" vertex="1">
          <mxGeometry x="315" y="1205" width="10" height="125" as="geometry" />
        </mxCell>
        <mxCell id="ZWPyIBg1fmBrResqL_RG-259" value="" style="html=1;points=[];perimeter=orthogonalPerimeter;outlineConnect=0;targetShapes=umlLifeline;portConstraint=eastwest;newEdgeStyle={&quot;edgeStyle&quot;:&quot;elbowEdgeStyle&quot;,&quot;elbow&quot;:&quot;vertical&quot;,&quot;curved&quot;:0,&quot;rounded&quot;:0};" parent="1" vertex="1">
          <mxGeometry x="35" y="1180" width="10" height="25" as="geometry" />
        </mxCell>
        <mxCell id="ZWPyIBg1fmBrResqL_RG-261" value="" style="html=1;verticalAlign=bottom;startArrow=oval;endArrow=block;startSize=8;edgeStyle=elbowEdgeStyle;elbow=vertical;curved=0;rounded=0;" parent="1" edge="1">
          <mxGeometry x="0.0008" relative="1" as="geometry">
            <mxPoint x="-30" y="1190.1399999999999" as="sourcePoint" />
            <mxPoint x="35" y="1190.1399999999999" as="targetPoint" />
            <mxPoint as="offset" />
          </mxGeometry>
        </mxCell>
        <mxCell id="ZWPyIBg1fmBrResqL_RG-262" value="" style="html=1;points=[];perimeter=orthogonalPerimeter;outlineConnect=0;targetShapes=umlLifeline;portConstraint=eastwest;newEdgeStyle={&quot;edgeStyle&quot;:&quot;elbowEdgeStyle&quot;,&quot;elbow&quot;:&quot;vertical&quot;,&quot;curved&quot;:0,&quot;rounded&quot;:0};" parent="1" vertex="1">
          <mxGeometry x="155" y="1185" width="10" height="365" as="geometry" />
        </mxCell>
        <mxCell id="ZWPyIBg1fmBrResqL_RG-265" value="点击通知管理按钮" style="html=1;verticalAlign=bottom;endArrow=block;curved=0;rounded=0;" parent="1" edge="1">
          <mxGeometry x="-0.0002" width="80" relative="1" as="geometry">
            <mxPoint x="45" y="1190" as="sourcePoint" />
            <mxPoint x="159.5" y="1190" as="targetPoint" />
            <mxPoint as="offset" />
          </mxGeometry>
        </mxCell>
        <mxCell id="ZWPyIBg1fmBrResqL_RG-311" value="等待通知记录" style="html=1;verticalAlign=bottom;endArrow=block;curved=0;rounded=0;" parent="1" edge="1">
          <mxGeometry x="0.0033" width="80" relative="1" as="geometry">
            <mxPoint x="165" y="1210" as="sourcePoint" />
            <mxPoint x="314.5" y="1210" as="targetPoint" />
            <mxPoint as="offset" />
          </mxGeometry>
        </mxCell>
        <mxCell id="ZWPyIBg1fmBrResqL_RG-312" value="" style="html=1;points=[];perimeter=orthogonalPerimeter;outlineConnect=0;targetShapes=umlLifeline;portConstraint=eastwest;newEdgeStyle={&quot;edgeStyle&quot;:&quot;elbowEdgeStyle&quot;,&quot;elbow&quot;:&quot;vertical&quot;,&quot;curved&quot;:0,&quot;rounded&quot;:0};" parent="1" vertex="1">
          <mxGeometry x="693" y="1210" width="10" height="110" as="geometry" />
        </mxCell>
        <mxCell id="ZWPyIBg1fmBrResqL_RG-313" value="" style="html=1;verticalAlign=bottom;endArrow=block;curved=0;rounded=0;" parent="1" target="ZWPyIBg1fmBrResqL_RG-312" edge="1">
          <mxGeometry width="80" relative="1" as="geometry">
            <mxPoint x="325" y="1229" as="sourcePoint" />
            <mxPoint x="710" y="1229" as="targetPoint" />
          </mxGeometry>
        </mxCell>
        <mxCell id="ZWPyIBg1fmBrResqL_RG-314" value="&lt;font style=&quot;font-size: 11px;&quot;&gt;获取通知信息&lt;/font&gt;" style="text;html=1;align=center;verticalAlign=middle;resizable=0;points=[];autosize=1;strokeColor=none;fillColor=none;" parent="1" vertex="1">
          <mxGeometry x="530" y="1205" width="90" height="30" as="geometry" />
        </mxCell>
        <mxCell id="ZWPyIBg1fmBrResqL_RG-315" value="" style="html=1;verticalAlign=bottom;endArrow=open;dashed=1;endSize=8;curved=0;rounded=0;" parent="1" edge="1">
          <mxGeometry x="0.0027" relative="1" as="geometry">
            <mxPoint x="690" y="1299" as="sourcePoint" />
            <mxPoint x="330" y="1299" as="targetPoint" />
            <mxPoint as="offset" />
          </mxGeometry>
        </mxCell>
        <mxCell id="ZWPyIBg1fmBrResqL_RG-316" value="&lt;font style=&quot;font-size: 11px;&quot;&gt;返回通知信息&lt;/font&gt;" style="text;html=1;align=center;verticalAlign=middle;resizable=0;points=[];autosize=1;strokeColor=none;fillColor=none;" parent="1" vertex="1">
          <mxGeometry x="535" y="1274" width="90" height="30" as="geometry" />
        </mxCell>
        <mxCell id="ZWPyIBg1fmBrResqL_RG-317" value="" style="html=1;verticalAlign=bottom;endArrow=open;dashed=1;endSize=8;curved=0;rounded=0;" parent="1" edge="1">
          <mxGeometry x="0.0027" relative="1" as="geometry">
            <mxPoint x="315" y="1318" as="sourcePoint" />
            <mxPoint x="170" y="1318" as="targetPoint" />
            <mxPoint as="offset" />
          </mxGeometry>
        </mxCell>
        <mxCell id="ZWPyIBg1fmBrResqL_RG-318" value="&lt;font style=&quot;font-size: 11px;&quot;&gt;返回通知记录&lt;/font&gt;" style="text;html=1;align=center;verticalAlign=middle;resizable=0;points=[];autosize=1;strokeColor=none;fillColor=none;" parent="1" vertex="1">
          <mxGeometry x="200" y="1296" width="90" height="30" as="geometry" />
        </mxCell>
        <mxCell id="ZWPyIBg1fmBrResqL_RG-319" value="选择投资记录" style="html=1;verticalAlign=bottom;endArrow=open;dashed=1;endSize=8;curved=0;rounded=0;" parent="1" edge="1">
          <mxGeometry x="-0.0044" relative="1" as="geometry">
            <mxPoint x="41.25" y="1386" as="sourcePoint" />
            <mxPoint x="155.75" y="1386" as="targetPoint" />
            <mxPoint as="offset" />
          </mxGeometry>
        </mxCell>
        <mxCell id="ZWPyIBg1fmBrResqL_RG-320" value="" style="html=1;points=[];perimeter=orthogonalPerimeter;outlineConnect=0;targetShapes=umlLifeline;portConstraint=eastwest;newEdgeStyle={&quot;edgeStyle&quot;:&quot;elbowEdgeStyle&quot;,&quot;elbow&quot;:&quot;vertical&quot;,&quot;curved&quot;:0,&quot;rounded&quot;:0};" parent="1" vertex="1">
          <mxGeometry x="34.75" y="1331" width="10" height="179" as="geometry" />
        </mxCell>
        <mxCell id="ZWPyIBg1fmBrResqL_RG-321" value="" style="html=1;verticalAlign=bottom;endArrow=block;curved=0;rounded=0;exitX=0.961;exitY=1;exitDx=0;exitDy=0;exitPerimeter=0;" parent="1" edge="1">
          <mxGeometry width="80" relative="1" as="geometry">
            <mxPoint x="157.07000000000016" y="1346" as="sourcePoint" />
            <mxPoint x="43.75" y="1346" as="targetPoint" />
          </mxGeometry>
        </mxCell>
        <mxCell id="ZWPyIBg1fmBrResqL_RG-322" value="&lt;font style=&quot;font-size: 11px;&quot;&gt;等待选择一条记录&lt;/font&gt;" style="text;html=1;align=center;verticalAlign=middle;resizable=0;points=[];autosize=1;strokeColor=none;fillColor=none;" parent="1" vertex="1">
          <mxGeometry x="45.81999999999999" y="1320" width="110" height="30" as="geometry" />
        </mxCell>
        <mxCell id="ZWPyIBg1fmBrResqL_RG-335" value="选择修改操作" style="html=1;verticalAlign=bottom;endArrow=open;dashed=1;endSize=8;curved=0;rounded=0;" parent="1" edge="1">
          <mxGeometry x="-0.0044" relative="1" as="geometry">
            <mxPoint x="43.25" y="1493" as="sourcePoint" />
            <mxPoint x="157.75" y="1493" as="targetPoint" />
            <mxPoint as="offset" />
          </mxGeometry>
        </mxCell>
        <mxCell id="ZWPyIBg1fmBrResqL_RG-336" value="" style="html=1;verticalAlign=bottom;endArrow=block;curved=0;rounded=0;exitX=0.961;exitY=1;exitDx=0;exitDy=0;exitPerimeter=0;" parent="1" edge="1">
          <mxGeometry width="80" relative="1" as="geometry">
            <mxPoint x="159.07000000000016" y="1453" as="sourcePoint" />
            <mxPoint x="45.75" y="1453" as="targetPoint" />
          </mxGeometry>
        </mxCell>
        <mxCell id="ZWPyIBg1fmBrResqL_RG-337" value="&lt;font style=&quot;font-size: 11px;&quot;&gt;等待选择希望进行的操作&lt;/font&gt;" style="text;html=1;align=center;verticalAlign=middle;resizable=0;points=[];autosize=1;strokeColor=none;fillColor=none;" parent="1" vertex="1">
          <mxGeometry x="32.81999999999999" y="1427" width="140" height="30" as="geometry" />
        </mxCell>
        <mxCell id="ZWPyIBg1fmBrResqL_RG-370" value="" style="html=1;points=[];perimeter=orthogonalPerimeter;outlineConnect=0;targetShapes=umlLifeline;portConstraint=eastwest;newEdgeStyle={&quot;edgeStyle&quot;:&quot;elbowEdgeStyle&quot;,&quot;elbow&quot;:&quot;vertical&quot;,&quot;curved&quot;:0,&quot;rounded&quot;:0};" parent="1" vertex="1">
          <mxGeometry x="155" y="1595" width="10" height="75" as="geometry" />
        </mxCell>
        <mxCell id="ZWPyIBg1fmBrResqL_RG-382" value="" style="html=1;points=[[0,0,0,0,5],[0,1,0,0,-5],[1,0,0,0,5],[1,1,0,0,-5]];perimeter=orthogonalPerimeter;outlineConnect=0;targetShapes=umlLifeline;portConstraint=eastwest;newEdgeStyle={&quot;curved&quot;:0,&quot;rounded&quot;:0};" parent="1" vertex="1">
          <mxGeometry x="315" y="1517" width="10" height="123" as="geometry" />
        </mxCell>
        <mxCell id="ZWPyIBg1fmBrResqL_RG-396" value="" style="html=1;verticalAlign=bottom;endArrow=open;dashed=1;endSize=8;curved=0;rounded=0;" parent="1" edge="1">
          <mxGeometry x="0.0027" relative="1" as="geometry">
            <mxPoint x="313.82" y="1612" as="sourcePoint" />
            <mxPoint x="168.82" y="1612" as="targetPoint" />
            <mxPoint as="offset" />
          </mxGeometry>
        </mxCell>
        <mxCell id="ZWPyIBg1fmBrResqL_RG-397" value="&lt;font style=&quot;font-size: 11px;&quot;&gt;提示不可修改已过期通知&lt;/font&gt;" style="text;html=1;align=center;verticalAlign=middle;resizable=0;points=[];autosize=1;strokeColor=none;fillColor=none;" parent="1" vertex="1">
          <mxGeometry x="177.82" y="1590" width="140" height="30" as="geometry" />
        </mxCell>
        <mxCell id="ZWPyIBg1fmBrResqL_RG-401" value="修改通知" style="html=1;verticalAlign=bottom;endArrow=block;curved=0;rounded=0;" parent="1" edge="1">
          <mxGeometry x="-0.0033" width="80" relative="1" as="geometry">
            <mxPoint x="165.5" y="1530" as="sourcePoint" />
            <mxPoint x="315" y="1530" as="targetPoint" />
            <mxPoint as="offset" />
          </mxGeometry>
        </mxCell>
      </root>
    </mxGraphModel>
  </diagram>
</mxfile>
